<?xml version="1.0" standalone="no"?>
<!DOCTYPE svg PUBLIC "-//W3C//DTD SVG 20010904//EN"
 "http://www.w3.org/TR/2001/REC-SVG-20010904/DTD/svg10.dtd">
<svg version="1.0" xmlns="http://www.w3.org/2000/svg"
 width="869.000000pt" height="708.000000pt" viewBox="0 0 869.000000 708.000000"
 preserveAspectRatio="xMidYMid meet">

<g transform="translate(0.000000,708.000000) scale(0.100000,-0.100000)"
fill="#000000" stroke="none">
<path d="M5249 6703 c-3 -16 -1 -44 2 -63 5 -28 7 -23 8 28 1 65 -4 82 -10 35z"/>
<path d="M2923 6665 c0 -33 2 -48 4 -32 4 22 9 27 33 27 24 0 29 -5 33 -27 2
-16 4 -1 4 32 0 33 -2 48 -4 33 -4 -23 -9 -28 -33 -28 -24 0 -29 5 -33 28 -2
15 -4 0 -4 -33z"/>
<path d="M4817 6706 c-4 -10 -1 -13 8 -9 8 3 12 9 9 14 -7 12 -11 11 -17 -5z"/>
<path d="M3074 6677 c23 -17 17 -52 -9 -52 -15 0 -20 7 -20 27 1 14 -3 24 -7
22 -14 -9 -9 -41 8 -55 31 -26 70 25 44 56 -7 8 -17 15 -23 15 -6 0 -3 -6 7
-13z"/>
<path d="M3133 6650 c0 -25 2 -35 4 -22 2 12 2 32 0 45 -2 12 -4 2 -4 -23z"/>
<path d="M3167 6679 c6 -8 13 -27 16 -44 4 -23 4 -20 3 9 -1 25 -6 41 -16 44
-12 4 -13 2 -3 -9z"/>
<path d="M3217 6683 c6 -4 13 -24 16 -43 4 -34 4 -33 3 4 -1 26 -6 41 -16 43
-10 3 -11 2 -3 -4z"/>
<path d="M5110 6680 c-8 -5 -12 -11 -10 -14 3 -2 14 2 24 10 22 15 10 19 -14
4z"/>
<path d="M5202 6678 c-22 -22 -7 -69 23 -68 5 0 2 5 -7 11 -10 5 -18 19 -18
29 0 10 8 24 18 29 9 6 12 11 7 11 -6 0 -16 -5 -23 -12z"/>
<path d="M5023 6664 c-8 -22 9 -48 33 -51 14 -2 12 0 -5 7 -18 8 -22 16 -19
35 6 28 1 33 -9 9z"/>
<path d="M3270 6658 c0 -5 14 -8 30 -8 17 0 30 3 30 8 0 4 -13 7 -30 7 -16 0
-30 -3 -30 -7z"/>
<path d="M4791 6638 c-9 -28 -9 -30 3 -15 7 9 23 17 34 17 12 0 26 -8 32 -17
11 -17 11 -17 6 0 -3 10 -6 22 -6 27 0 4 -9 6 -21 3 -12 -3 -24 0 -29 7 -5 8
-11 1 -19 -22z"/>
<path d="M5290 6658 c0 -5 14 -8 30 -8 17 0 30 3 30 8 0 4 -13 7 -30 7 -16 0
-30 -3 -30 -7z"/>
<path d="M3270 6631 c0 -9 30 -24 36 -18 2 1 -6 8 -16 15 -11 7 -20 8 -20 3z"/>
<path d="M5100 6631 c0 -9 30 -24 36 -18 2 1 -6 8 -16 15 -11 7 -20 8 -20 3z"/>
<path d="M5290 6631 c0 -9 30 -24 36 -18 2 1 -6 8 -16 15 -11 7 -20 8 -20 3z"/>
<path d="M5520 6330 c-18 -18 -20 -33 -20 -160 0 -127 2 -142 20 -160 19 -19
33 -20 545 -20 512 0 526 1 545 20 18 18 20 33 20 160 0 127 -2 142 -20 160
-19 19 -33 20 -545 20 -512 0 -526 -1 -545 -20z m170 -120 c0 -5 -10 -10 -21
-10 -20 0 -20 -2 7 -27 16 -16 31 -25 32 -20 2 4 13 7 23 7 11 0 18 4 14 10
-3 5 -12 7 -20 3 -8 -3 -15 0 -15 7 0 6 11 10 28 8 22 -2 28 -8 30 -35 l3 -31
-70 0 c-39 0 -71 4 -71 9 0 5 9 9 20 9 26 0 25 8 -2 29 -27 23 -18 51 17 51
14 0 25 -4 25 -10z m730 -22 c0 -29 1 -30 13 -14 16 22 60 18 65 -6 3 -14 -3
-18 -23 -18 -14 0 -24 -4 -20 -10 3 -5 12 -7 20 -3 8 3 15 0 15 -6 0 -18 -48
-13 -59 7 -10 16 -10 16 -11 0 0 -24 -58 -25 -67 -2 -5 15 -7 15 -15 1 -12
-23 -124 -22 -137 1 -13 24 5 52 34 52 14 0 25 -4 25 -10 0 -5 -9 -10 -20 -10
-11 0 -20 -7 -20 -15 0 -23 34 -18 45 8 12 27 54 35 71 13 10 -15 12 -15 18
-1 3 8 15 15 26 15 11 0 20 7 20 15 0 8 5 15 10 15 6 0 10 -14 10 -32z m-620
-13 c0 -8 5 -15 10 -15 6 0 10 7 10 15 0 8 7 15 15 15 13 0 13 -4 2 -32 -7
-18 -20 -33 -27 -33 -7 0 -20 15 -27 33 -11 28 -11 32 2 32 8 0 15 -7 15 -15z
m118 -7 c3 -14 -3 -18 -23 -18 -14 0 -24 -4 -20 -10 3 -5 12 -7 20 -3 8 3 15
0 15 -7 0 -6 -11 -10 -27 -8 -28 3 -40 25 -29 54 8 21 60 14 64 -8z m160 -15
c2 -25 -1 -33 -12 -33 -10 0 -16 9 -16 25 0 14 -4 25 -10 25 -5 0 -10 -11 -10
-25 0 -14 -4 -25 -10 -25 -5 0 -10 11 -10 25 0 14 -4 25 -10 25 -5 0 -10 -11
-10 -25 0 -16 -6 -25 -15 -25 -11 0 -15 11 -15 35 l0 36 58 -3 c56 -3 57 -3
60 -35z m32 22 c0 -8 5 -15 10 -15 6 0 10 7 10 15 0 8 7 15 15 15 12 0 12 -7
-4 -47 -14 -37 -24 -49 -42 -51 -22 -2 -23 -2 -6 11 16 13 16 17 2 51 -14 32
-14 36 0 36 8 0 15 -7 15 -15z"/>
<path d="M5730 6139 c0 -5 5 -7 10 -4 6 3 10 8 10 11 0 2 -4 4 -10 4 -5 0 -10
-5 -10 -11z"/>
<path d="M6455 6170 c-3 -5 -1 -10 4 -10 6 0 11 5 11 10 0 6 -2 10 -4 10 -3 0
-8 -4 -11 -10z"/>
<path d="M6285 6161 c-7 -12 12 -24 25 -16 11 7 4 25 -10 25 -5 0 -11 -4 -15
-9z"/>
<path d="M6370 6155 c0 -8 7 -15 15 -15 8 0 15 7 15 15 0 8 -7 15 -15 15 -8 0
-15 -7 -15 -15z"/>
<path d="M5875 6170 c-3 -5 -1 -10 4 -10 6 0 11 5 11 10 0 6 -2 10 -4 10 -3 0
-8 -4 -11 -10z"/>
<path d="M1828 6203 c6 -2 18 -2 25 0 6 3 1 5 -13 5 -14 0 -19 -2 -12 -5z"/>
<path d="M2208 6203 c7 -3 16 -2 19 1 4 3 -2 6 -13 5 -11 0 -14 -3 -6 -6z"/>
<path d="M2543 6203 c9 -2 23 -2 30 0 6 3 -1 5 -18 5 -16 0 -22 -2 -12 -5z"/>
<path d="M1968 6173 c7 -3 16 -2 19 1 4 3 -2 6 -13 5 -11 0 -14 -3 -6 -6z"/>
<path d="M2266 6171 c-4 -5 3 -7 14 -4 23 6 26 13 6 13 -8 0 -17 -4 -20 -9z"/>
<path d="M2648 6173 c7 -3 16 -2 19 1 4 3 -2 6 -13 5 -11 0 -14 -3 -6 -6z"/>
<path d="M1828 6163 c7 -3 16 -2 19 1 4 3 -2 6 -13 5 -11 0 -14 -3 -6 -6z"/>
<path d="M2023 6143 c9 -2 23 -2 30 0 6 3 -1 5 -18 5 -16 0 -22 -2 -12 -5z"/>
<path d="M2433 6143 c9 -2 23 -2 30 0 6 3 -1 5 -18 5 -16 0 -22 -2 -12 -5z"/>
<path d="M2733 6143 c9 -2 23 -2 30 0 6 3 -1 5 -18 5 -16 0 -22 -2 -12 -5z"/>
<path d="M2188 6118 c6 -6 18 -8 28 -6 14 3 12 5 -9 10 -19 3 -25 2 -19 -4z"/>
<path d="M2268 6118 c5 -5 16 -8 23 -6 8 3 3 7 -10 11 -17 4 -21 3 -13 -5z"/>
<path d="M2348 6118 c5 -5 16 -8 23 -6 8 3 3 7 -10 11 -17 4 -21 3 -13 -5z"/>
<path d="M1828 6113 c6 -2 18 -2 25 0 6 3 1 5 -13 5 -14 0 -19 -2 -12 -5z"/>
<path d="M2028 6113 c6 -2 18 -2 25 0 6 3 1 5 -13 5 -14 0 -19 -2 -12 -5z"/>
<path d="M2448 6113 c7 -3 16 -2 19 1 4 3 -2 6 -13 5 -11 0 -14 -3 -6 -6z"/>
<path d="M2748 6113 c7 -3 16 -2 19 1 4 3 -2 6 -13 5 -11 0 -14 -3 -6 -6z"/>
<path d="M1828 5603 c6 -2 18 -2 25 0 6 3 1 5 -13 5 -14 0 -19 -2 -12 -5z"/>
<path d="M1983 5583 c9 -2 23 -2 30 0 6 3 -1 5 -18 5 -16 0 -22 -2 -12 -5z"/>
<path d="M2448 5583 c7 -3 16 -2 19 1 4 3 -2 6 -13 5 -11 0 -14 -3 -6 -6z"/>
<path d="M1828 5563 c6 -2 18 -2 25 0 6 3 1 5 -13 5 -14 0 -19 -2 -12 -5z"/>
<path d="M2673 5563 c9 -2 23 -2 30 0 6 3 -1 5 -18 5 -16 0 -22 -2 -12 -5z"/>
<path d="M2053 5553 c9 -2 23 -2 30 0 6 3 -1 5 -18 5 -16 0 -22 -2 -12 -5z"/>
<path d="M2523 5553 c9 -2 23 -2 30 0 6 3 -1 5 -18 5 -16 0 -22 -2 -12 -5z"/>
<path d="M2753 5553 c9 -2 23 -2 30 0 6 3 -1 5 -18 5 -16 0 -22 -2 -12 -5z"/>
<path d="M2903 5553 c9 -2 23 -2 30 0 6 3 -1 5 -18 5 -16 0 -22 -2 -12 -5z"/>
<path d="M2288 5528 c5 -5 16 -8 23 -6 8 3 3 7 -10 11 -17 4 -21 3 -13 -5z"/>
<path d="M1828 5523 c6 -2 18 -2 25 0 6 3 1 5 -13 5 -14 0 -19 -2 -12 -5z"/>
<path d="M1998 5523 c7 -3 16 -2 19 1 4 3 -2 6 -13 5 -11 0 -14 -3 -6 -6z"/>
<path d="M2068 5523 c7 -3 16 -2 19 1 4 3 -2 6 -13 5 -11 0 -14 -3 -6 -6z"/>
<path d="M2528 5523 c7 -3 16 -2 19 1 4 3 -2 6 -13 5 -11 0 -14 -3 -6 -6z"/>
<path d="M2758 5523 c7 -3 16 -2 19 1 4 3 -2 6 -13 5 -11 0 -14 -3 -6 -6z"/>
<path d="M2918 5523 c7 -3 16 -2 19 1 4 3 -2 6 -13 5 -11 0 -14 -3 -6 -6z"/>
<path d="M6565 1548 l-40 -43 43 40 c39 36 47 45 39 45 -2 0 -21 -19 -42 -42z"/>
<path d="M6584 1528 l-19 -23 23 19 c21 18 27 26 19 26 -2 0 -12 -10 -23 -22z"/>
</g>
</svg>
