<?xml version="1.0" encoding="UTF-8"?>
<svg version="1.1" xmlns="http://www.w3.org/2000/svg" width="200" height="200">
<path d="M0 0 C66 0 132 0 200 0 C200 66 200 132 200 200 C134 200 68 200 0 200 C0 134 0 68 0 0 Z " fill="#FEFEFE" transform="translate(0,0)"/>
<path d="M0 0 C5.47338753 4.69286881 5.47338753 4.69286881 6.75390625 7.25390625 C7.74390625 7.58390625 8.73390625 7.91390625 9.75390625 8.25390625 C9.75390625 9.90390625 9.75390625 11.55390625 9.75390625 13.25390625 C8.76390625 13.25390625 7.77390625 13.25390625 6.75390625 13.25390625 C6.75390625 13.91390625 6.75390625 14.57390625 6.75390625 15.25390625 C8.73390625 14.59390625 10.71390625 13.93390625 12.75390625 13.25390625 C13.74390625 14.73890625 13.74390625 14.73890625 14.75390625 16.25390625 C17.80819698 17.46675501 17.80819698 17.46675501 20.75390625 18.25390625 C18.75777357 24.97259675 16.02476415 31.06125433 12.75390625 37.25390625 C12.09390625 37.25390625 11.43390625 37.25390625 10.75390625 37.25390625 C9.76390625 34.28390625 9.76390625 34.28390625 8.75390625 31.25390625 C7.46419922 32.12402344 7.46419922 32.12402344 6.1484375 33.01171875 C-14.91774833 47.02677615 -33.23536041 51.06838404 -58.24609375 50.25390625 C-56.74609375 47.25390625 -56.74609375 47.25390625 -55.24609375 44.25390625 C-55.72046875 43.22265625 -56.19484375 42.19140625 -56.68359375 41.12890625 C-59.76015694 33.32355149 -59.5269156 22.75954575 -56.80859375 14.87890625 C-52.1684251 5.15586734 -44.15113724 -1.4579778 -34.62109375 -5.99609375 C-22.54280295 -9.81029085 -9.99789606 -7.77227746 0 0 Z " fill="#F8FCFC" transform="translate(122.24609375,75.74609375)"/>
<path d="M0 0 C3.62546871 3.04884024 6.92119135 5.91897772 8.82421875 10.359375 C8.49421875 11.019375 8.16421875 11.679375 7.82421875 12.359375 C6.83421875 10.8125 6.83421875 10.8125 5.82421875 9.234375 C0.7097022 2.14281844 -6.70110709 -2.55994638 -15.17578125 -4.640625 C-25.20123287 -5.78173331 -34.26932496 -4.72262209 -42.6796875 1.08984375 C-48.92070529 6.24099682 -53.46525071 12.35918612 -55.17578125 20.359375 C-55.38892816 23.35704449 -55.36088144 26.35481852 -55.36328125 29.359375 C-55.37552734 30.16632813 -55.38777344 30.97328125 -55.40039062 31.8046875 C-55.40232422 32.58585937 -55.40425781 33.36703125 -55.40625 34.171875 C-55.41035889 34.87957031 -55.41446777 35.58726563 -55.41870117 36.31640625 C-55.13753097 38.6810618 -54.2536093 40.25337856 -53.17578125 42.359375 C-53.17578125 43.349375 -53.17578125 44.339375 -53.17578125 45.359375 C-50.70078125 44.864375 -50.70078125 44.864375 -48.17578125 44.359375 C-48.15596191 43.73893311 -48.13614258 43.11849121 -48.11572266 42.47924805 C-48.0204628 39.66802963 -47.91078823 36.85755334 -47.80078125 34.046875 C-47.754375 32.58217773 -47.754375 32.58217773 -47.70703125 31.08789062 C-47.66835937 30.15009766 -47.6296875 29.21230469 -47.58984375 28.24609375 C-47.55842285 27.38201904 -47.52700195 26.51794434 -47.49462891 25.62768555 C-47.17578125 23.359375 -47.17578125 23.359375 -45.17578125 20.359375 C-41.14987409 19.94117135 -37.23190594 20.22992421 -33.17578125 20.359375 C-33.17578125 25.639375 -33.17578125 30.919375 -33.17578125 36.359375 C-32.51578125 36.359375 -31.85578125 36.359375 -31.17578125 36.359375 C-31.18625488 35.67834717 -31.19672852 34.99731934 -31.20751953 34.2956543 C-31.24907003 31.21276534 -31.27510436 28.12993529 -31.30078125 25.046875 C-31.31753906 23.97501953 -31.33429688 22.90316406 -31.3515625 21.79882812 C-31.35800781 20.77080078 -31.36445312 19.74277344 -31.37109375 18.68359375 C-31.38156738 17.73572998 -31.39204102 16.78786621 -31.40283203 15.8112793 C-31.17578125 13.359375 -31.17578125 13.359375 -29.17578125 10.359375 C-26.828125 9.8125 -26.828125 9.8125 -24.11328125 9.609375 C-23.21480469 9.53203125 -22.31632812 9.4546875 -21.390625 9.375 C-20.65972656 9.36984375 -19.92882812 9.3646875 -19.17578125 9.359375 C-18.17578125 10.359375 -18.17578125 10.359375 -18.06225586 13.04321289 C-18.06749268 14.21102295 -18.07272949 15.37883301 -18.078125 16.58203125 C-18.08134766 17.84208984 -18.08457031 19.10214844 -18.08789062 20.40039062 C-18.09624722 21.74088609 -18.10471218 23.08138088 -18.11328125 24.421875 C-18.11829465 25.76627442 -18.12285783 27.1106756 -18.12695312 28.45507812 C-18.13878637 31.75655441 -18.15527154 35.05794303 -18.17578125 38.359375 C-9.32211122 35.5211794 -1.60516172 31.03539566 3.82421875 23.359375 C3.32921875 22.410625 2.83421875 21.461875 2.32421875 20.484375 C0.82421875 17.359375 0.82421875 17.359375 0.82421875 15.359375 C7.61001235 15.90801363 14.17430911 16.90205438 20.82421875 18.359375 C18.82808607 25.0780655 16.09507665 31.16672308 12.82421875 37.359375 C12.16421875 37.359375 11.50421875 37.359375 10.82421875 37.359375 C9.83421875 34.389375 9.83421875 34.389375 8.82421875 31.359375 C7.53451172 32.22949219 7.53451172 32.22949219 6.21875 33.1171875 C-14.84743583 47.1322449 -33.16504791 51.17385279 -58.17578125 50.359375 C-56.67578125 47.359375 -56.67578125 47.359375 -55.17578125 44.359375 C-55.65015625 43.328125 -56.12453125 42.296875 -56.61328125 41.234375 C-59.68984444 33.42902024 -59.4566031 22.8650145 -56.73828125 14.984375 C-52.0981126 5.26133609 -44.08082474 -1.35250905 -34.55078125 -5.890625 C-22.44384662 -9.71386751 -10.09867374 -7.61479887 0 0 Z " fill="#D4ECF6" transform="translate(122.17578125,75.640625)"/>
<path d="M0 0 C6.79527273 0.58245195 13.33881231 1.5402078 20 3 C18.00386732 9.7186905 15.2708579 15.80734808 12 22 C11.34 22 10.68 22 10 22 C9.01 19.03 9.01 19.03 8 16 C6.71029297 16.87011719 6.71029297 16.87011719 5.39453125 17.7578125 C-15.67165458 31.7728699 -33.98926666 35.81447779 -59 35 C-59 34.67 -59 34.34 -59 34 C-58.03513672 33.86537354 -58.03513672 33.86537354 -57.05078125 33.72802734 C-34.50534825 30.49978507 -13.91441053 25.23783411 3 9 C2.01 6.03 1.02 3.06 0 0 Z " fill="#1E4375" transform="translate(123,91)"/>
<path d="M0 0 C0.80566406 0.00257812 1.61132812 0.00515625 2.44140625 0.0078125 C3.64603516 0.00394531 3.64603516 0.00394531 4.875 0 C7.00390625 0.1328125 7.00390625 0.1328125 9.00390625 1.1328125 C9.23672698 5.02763466 9.37847264 8.92067104 9.50390625 12.8203125 C9.5709375 13.92310547 9.63796875 15.02589844 9.70703125 16.16210938 C9.90045014 24.16481587 9.90045014 24.16481587 7.2578125 27.01806641 C4.54331635 28.75757739 2.27340231 30.1328125 -0.99609375 30.1328125 C-0.99609375 30.7928125 -0.99609375 31.4528125 -0.99609375 32.1328125 C-1.65609375 32.1328125 -2.31609375 32.1328125 -2.99609375 32.1328125 C-3.02074879 27.73625077 -3.03893217 23.3397253 -3.05102539 18.94311523 C-3.05606496 17.44636332 -3.06289662 15.94961634 -3.0715332 14.45288086 C-3.08361534 12.30581443 -3.08932566 10.15881288 -3.09375 8.01171875 C-3.09898682 6.7182251 -3.10422363 5.42473145 -3.10961914 4.09204102 C-2.96019148 0.1969599 -2.96019148 0.1969599 0 0 Z " fill="#0269AD" transform="translate(109.99609375,78.8671875)"/>
<path d="M0 0 C3.63 0 7.26 0 11 0 C11 8.25 11 16.5 11 25 C2 29 2 29 0 29 C0 19.43 0 9.86 0 0 Z " fill="#0A67A3" transform="translate(92,88)"/>
<path d="M0 0 C7.56874519 3.52338138 12.93460545 7.18119965 18 14 C18 13.34 18 12.68 18 12 C18.66 12 19.32 12 20 12 C20 13.65 20 15.3 20 17 C19.01 17 18.02 17 17 17 C17 17.66 17 18.32 17 19 C18.98 18.34 20.96 17.68 23 17 C23.66 18.32 24.32 19.64 25 21 C15.58997722 20.03644647 15.58997722 20.03644647 11 19 C12.32 21.97 13.64 24.94 15 28 C13.46620188 29.44589269 11.92256145 30.88134804 10.375 32.3125 C9.08722656 33.51326172 9.08722656 33.51326172 7.7734375 34.73828125 C4.97799034 37.01794872 2.27579084 38.51580738 -1 40 C-1 39.34 -1 38.68 -1 38 C-1.66 37.67 -2.32 37.34 -3 37 C-1.71186658 36.16121545 -0.41936744 35.32913217 0.875 34.5 C1.59429687 34.0359375 2.31359375 33.571875 3.0546875 33.09375 C5 32 5 32 7 32 C7 24.08 7 16.16 7 8 C4.69 7.67 2.38 7.34 0 7 C0.185625 6.401875 0.37125 5.80375 0.5625 5.1875 C1.22093687 2.83591238 1.22093687 2.83591238 0 0 Z " fill="#EBF5F7" transform="translate(112,72)"/>
<path d="M0 0 C3.63 0 7.26 0 11 0 C12 1 12 1 12.11352539 3.04125977 C12.10828857 3.91580811 12.10305176 4.79035645 12.09765625 5.69140625 C12.09443359 6.63564453 12.09121094 7.57988281 12.08789062 8.55273438 C12.07951172 9.54595703 12.07113281 10.53917969 12.0625 11.5625 C12.05798828 12.55958984 12.05347656 13.55667969 12.04882812 14.58398438 C12.03700023 17.05601487 12.01906415 19.52801472 12 22 C8.04 22.66 4.08 23.32 0 24 C0 16.08 0 8.16 0 0 Z " fill="#1273B1" transform="translate(76,97)"/>
<path d="M0 0 C3.62546871 3.04884024 6.92119135 5.91897772 8.82421875 10.359375 C8.49421875 11.019375 8.16421875 11.679375 7.82421875 12.359375 C6.83421875 10.8125 6.83421875 10.8125 5.82421875 9.234375 C0.7097022 2.14281844 -6.70110709 -2.55994638 -15.17578125 -4.640625 C-25.20123287 -5.78173331 -34.26932496 -4.72262209 -42.6796875 1.08984375 C-48.92876054 6.24764539 -53.4493811 12.35682932 -55.17578125 20.359375 C-55.41297763 23.27329665 -55.40667876 26.18669432 -55.42578125 29.109375 C-55.44640625 29.8828125 -55.46703125 30.65625 -55.48828125 31.453125 C-55.5260506 37.08075778 -54.41583411 41.19546367 -52.17578125 46.359375 C-52.83578125 46.359375 -53.49578125 46.359375 -54.17578125 46.359375 C-59.07092301 37.26839745 -59.62290022 27.47038344 -57.5859375 17.4609375 C-54.24845681 7.70995704 -46.26297283 -0.07701337 -37.17578125 -4.640625 C-24.90244912 -10.48506887 -10.62540402 -8.01197431 0 0 Z " fill="#515F73" transform="translate(122.17578125,75.640625)"/>
<path d="M0 0 C-0.33 1.65 -0.66 3.3 -1 5 C-8.61447795 6.89135871 -15.80209671 7.24856955 -23.625 7.125 C-25.27435547 7.11146484 -25.27435547 7.11146484 -26.95703125 7.09765625 C-29.63825758 7.07434124 -32.31900607 7.0416204 -35 7 C-35 6.67 -35 6.34 -35 6 C-34.3201001 5.89453857 -33.6402002 5.78907715 -32.93969727 5.68041992 C-29.81266061 5.19073273 -26.687631 4.68919937 -23.5625 4.1875 C-22.49322266 4.02185547 -21.42394531 3.85621094 -20.32226562 3.68554688 C-14.55045953 2.75005537 -9.18376811 1.59432054 -3.72241211 -0.51831055 C-2 -1 -2 -1 0 0 Z " fill="#2C4971" transform="translate(99,119)"/>
<path d="M0 0 C0.80566406 0.00257812 1.61132812 0.00515625 2.44140625 0.0078125 C3.64603516 0.00394531 3.64603516 0.00394531 4.875 0 C7.00390625 0.1328125 7.00390625 0.1328125 9.00390625 1.1328125 C9.00390625 9.0528125 9.00390625 16.9728125 9.00390625 25.1328125 C8.67390625 25.1328125 8.34390625 25.1328125 8.00390625 25.1328125 C7.34390625 17.8728125 6.68390625 10.6128125 6.00390625 3.1328125 C3.69390625 2.8028125 1.38390625 2.4728125 -0.99609375 2.1328125 C-0.99609375 12.0328125 -0.99609375 21.9328125 -0.99609375 32.1328125 C-1.65609375 32.1328125 -2.31609375 32.1328125 -2.99609375 32.1328125 C-3.02074879 27.73625077 -3.03893217 23.3397253 -3.05102539 18.94311523 C-3.05606496 17.44636332 -3.06289662 15.94961634 -3.0715332 14.45288086 C-3.08361534 12.30581443 -3.08932566 10.15881288 -3.09375 8.01171875 C-3.09898682 6.7182251 -3.10422363 5.42473145 -3.10961914 4.09204102 C-2.96019148 0.1969599 -2.96019148 0.1969599 0 0 Z " fill="#5087AC" transform="translate(109.99609375,78.8671875)"/>
<path d="M0 0 C0.99 0.33 1.98 0.66 3 1 C3 6.94 3 12.88 3 19 C-4 20 -4 20 -6 19 C-5.505 17.515 -5.505 17.515 -5 16 C-3.515 16.99 -3.515 16.99 -2 18 C-2 16.02 -2 14.04 -2 12 C-1.34 12 -0.68 12 0 12 C0 8.04 0 4.08 0 0 Z " fill="#0D659F" transform="translate(84,100)"/>
<path d="M0 0 C3.63 0 7.26 0 11 0 C10.67 0.99 10.34 1.98 10 3 C7 3 7 3 2 2 C2 8.6 2 15.2 2 22 C2.66 22.33 3.32 22.66 4 23 C2.68 23.33 1.36 23.66 0 24 C0 16.08 0 8.16 0 0 Z " fill="#2C73A0" transform="translate(76,97)"/>
<path d="M0 0 C0 9.9 0 19.8 0 30 C-0.99 30.33 -1.98 30.66 -3 31 C-3 30.34 -3 29.68 -3 29 C-3.66 28.67 -4.32 28.34 -5 28 C-4.01 27.67 -3.02 27.34 -2 27 C-1.67 18.75 -1.34 10.5 -1 2 C-4.3 2 -7.6 2 -11 2 C-11 1.34 -11 0.68 -11 0 C-6.68380697 -0.90338924 -4.49202386 -0.89840477 0 0 Z " fill="#BEE4F8" transform="translate(104,86)"/>
<path d="M0 0 C0.33 0 0.66 0 1 0 C1.19585353 3.97880228 1.3802867 7.95805156 1.5625 11.9375 C1.61857422 13.07380859 1.67464844 14.21011719 1.73242188 15.38085938 C1.78076172 16.46044922 1.82910156 17.54003906 1.87890625 18.65234375 C1.9260376 19.65257568 1.97316895 20.65280762 2.02172852 21.68334961 C2 24 2 24 1 25 C-1.01594582 25.23427778 -3.038474 25.41336124 -5.0625 25.5625 C-6.71958984 25.68818359 -6.71958984 25.68818359 -8.41015625 25.81640625 C-9.26480469 25.87699219 -10.11945313 25.93757813 -11 26 C-8.05882375 22.19377191 -6.35423333 22.52978095 -1 21 C-0.67 14.07 -0.34 7.14 0 0 Z " fill="#F1FEFE" transform="translate(75,99)"/>
<path d="M0 0 C1.5 1.375 1.5 1.375 3 3 C3 3.66 3 4.32 3 5 C2.34 5 1.68 5 1 5 C1.61875 5.70125 2.2375 6.4025 2.875 7.125 C5.0427009 10.05777181 6.02655555 12.51182406 7 16 C4.35261084 17.4606285 3.10551666 18 0 18 C0 12 0 6 0 0 Z " fill="#F9FDFC" transform="translate(120,84)"/>
<path d="M0 0 C0.33 0 0.66 0 1 0 C1 7.92 1 15.84 1 24 C4.58983651 22.80338783 5.76062169 22.0604837 8 19 C8.63670762 15.67555118 8.87102336 12.37918797 9 9 C9.33 9 9.66 9 10 9 C10.54063295 13.12482914 10.79305582 16.89906664 10 21 C7.38827467 23.82936911 4.52013531 25.48281503 1 27 C0.67 27 0.34 27 0 27 C0 18.09 0 9.18 0 0 Z " fill="#125E93" transform="translate(108,83)"/>
<path d="M0 0 C8.14365517 -0.75404215 13.80152665 1.88133706 20.30859375 6.71484375 C23.89739395 9.72416795 27.12035083 12.61415194 29 17 C28.67 17.66 28.34 18.32 28 19 C27.34 17.96875 26.68 16.9375 26 15.875 C19.75192945 7.2117089 10.33210372 2.85353903 0 1 C0 0.67 0 0.34 0 0 Z " fill="#4E5A69" transform="translate(102,69)"/>
<path d="M0 0 C0.33 1.32 0.66 2.64 1 4 C-1.475 3.505 -1.475 3.505 -4 3 C-4 3.66 -4 4.32 -4 5 C-4.66 5 -5.32 5 -6 5 C-6.33 5.66 -6.66 6.32 -7 7 C-8.8125 9.125 -8.8125 9.125 -11 11 C-12.32 11 -13.64 11 -15 11 C-15.33 11.66 -15.66 12.32 -16 13 C-17.32 12.34 -18.64 11.68 -20 11 C-19.03578125 10.45730469 -18.0715625 9.91460937 -17.078125 9.35546875 C-15.80200123 8.6329575 -14.52596412 7.91029317 -13.25 7.1875 C-12.61578125 6.83107422 -11.9815625 6.47464844 -11.328125 6.10742188 C-8.65337878 4.58894616 -6.12865753 3.09735662 -3.671875 1.23828125 C-2 0 -2 0 0 0 Z " fill="#E2EDF5" transform="translate(131,107)"/>
<path d="M0 0 C3.3 0.33 6.6 0.66 10 1 C8.68 3.31 7.36 5.62 6 8 C5.01 8 4.02 8 3 8 C0 2.25 0 2.25 0 0 Z " fill="#2A4872" transform="translate(123,91)"/>
<path d="M0 0 C3.3 0.33 6.6 0.66 10 1 C7.47671768 3.52328232 6.1655624 4.71399027 3 6 C2.01 6 1.02 6 0 6 C0 4.02 0 2.04 0 0 Z " fill="#1D3F68" transform="translate(106,114)"/>
<path d="M0 0 C0.33 1.32 0.66 2.64 1 4 C-4.94 4.495 -4.94 4.495 -11 5 C-7.47240796 1.47240796 -5.006085 0 0 0 Z " fill="#DEE0ED" transform="translate(75,120)"/>
<path d="M0 0 C0.66 0.99 1.32 1.98 2 3 C-0.64 4.65 -3.28 6.3 -6 8 C-6 7.34 -6 6.68 -6 6 C-6.66 5.67 -7.32 5.34 -8 5 C-4.04 2.525 -4.04 2.525 0 0 Z " fill="#C7E4F1" transform="translate(117,104)"/>
<path d="M0 0 C-0.33 0.99 -0.66 1.98 -1 3 C-4.3 2.67 -7.6 2.34 -11 2 C-11 1.34 -11 0.68 -11 0 C-6.98195309 -0.84098656 -3.98196457 -1.05404945 0 0 Z " fill="#C9E4EE" transform="translate(104,86)"/>
<path d="M0 0 C0 0.66 0 1.32 0 2 C-6.625 5.125 -6.625 5.125 -10 4 C-6.83527002 0.53386716 -4.79371499 0 0 0 Z " fill="#E0F0F8" transform="translate(101,115)"/>
<path d="M0 0 C0 1.32 0 2.64 0 4 C-2.64 4.66 -5.28 5.32 -8 6 C-8 4.68 -8 3.36 -8 2 C-2.25 0 -2.25 0 0 0 Z " fill="#E7EAF2" transform="translate(108,120)"/>
<path d="M0 0 C-0.66 1.32 -1.32 2.64 -2 4 C-3.65 4 -5.3 4 -7 4 C-7 2.68 -7 1.36 -7 0 C-2.25 -1.125 -2.25 -1.125 0 0 Z " fill="#143D6C" transform="translate(123,109)"/>
<path d="M0 0 C0.66 0 1.32 0 2 0 C0.125 5.75 0.125 5.75 -1 8 C-1.66 8 -2.32 8 -3 8 C-3.66 6.35 -4.32 4.7 -5 3 C-4.360625 2.87625 -3.72125 2.7525 -3.0625 2.625 C-2.0415625 2.315625 -2.0415625 2.315625 -1 2 C-0.67 1.34 -0.34 0.68 0 0 Z " fill="#2C4668" transform="translate(136,105)"/>
<path d="M0 0 C1.2065625 0.0309375 1.2065625 0.0309375 2.4375 0.0625 C1.75 2 1.75 2 0.4375 4.0625 C-2.1875 4.8125 -2.1875 4.8125 -4.5625 5.0625 C-3.43829114 0.08386076 -3.43829114 0.08386076 0 0 Z " fill="#153E70" transform="translate(101.5625,117.9375)"/>
<path d="M0 0 C0.66 0.33 1.32 0.66 2 1 C-0.88087546 3.40072955 -3.56404834 5.47291037 -7 7 C-7.66 6.34 -8.32 5.68 -9 5 C-7.54735962 4.1361871 -6.0876837 3.28419546 -4.625 2.4375 C-3.40683594 1.72400391 -3.40683594 1.72400391 -2.1640625 0.99609375 C-1.44992188 0.66738281 -0.73578125 0.33867188 0 0 Z " fill="#D3DFEA" transform="translate(120,113)"/>
<path d="M0 0 C2 1 2 1 3.125 4.0625 C3.41375 5.031875 3.7025 6.00125 4 7 C3.01 7.66 2.02 8.32 1 9 C1 7.68 1 6.36 1 5 C0.34 4.67 -0.32 4.34 -1 4 C-0.67 2.68 -0.34 1.36 0 0 Z " fill="#DCE9F5" transform="translate(123,93)"/>
<path d="M0 0 C1.98 0 3.96 0 6 0 C5.34 1.65 4.68 3.3 4 5 C3.67 4.34 3.34 3.68 3 3 C2.34 3 1.68 3 1 3 C0.67 2.01 0.34 1.02 0 0 Z " fill="#203C68" transform="translate(137,94)"/>
<path d="M0 0 C0 3.51716303 -0.82445585 4.37121748 -3 7 C-4.32 6.67 -5.64 6.34 -7 6 C-4.69 4.02 -2.38 2.04 0 0 Z " fill="#284465" transform="translate(124,102)"/>
<path d="M0 0 C0.66 0 1.32 0 2 0 C2.66 1.32 3.32 2.64 4 4 C1.03 3.67 -1.94 3.34 -5 3 C-3.68 2.34 -2.36 1.68 -1 1 C-0.67 0.67 -0.34 0.34 0 0 Z " fill="#D6E6F0" transform="translate(133,89)"/>
</svg>
